# AST/ASF file generated using VICON BodyLanguage
# -----------------------------------------------
:version 1.10
:name VICON
:units
  mass 1.0
  length 0.45
  angle deg
:documentation
   .ast/.asf automatically generated from VICON data using
   VICON BodyBuilder and BodyLanguage model FoxedUp or BRILLIANT.MOD
:root
   order TX TY TZ RX RY RZ
   axis XYZ
   position 0 0 0  
   orientation 0 0 0 
:bonedata
  begin
     id 1 
     name lhipjoint
     direction 0.627457 -0.725269 0.283342 
     length 2.53237 
     axis 0 0 0  XYZ
  end
  begin
     id 2 
     name lfemur
     direction 0.34202 -0.939693 0  
     length 7.32496  
     axis 0 0 20  XYZ
    dof rx ry rz
    limits (-160.0 20.0)
           (-70.0 70.0)
           (-60.0 70.0)
  end
  begin
     id 3 
     name ltibia
     direction 0.34202 -0.939693 0   
     length 7.69674   
     axis 0 0 20   XYZ
    dof rx
    limits (-10.0 170.0)
  end
  begin
     id 4 
     name lfoot
     direction 0.127289 -0.349722 0.928166   
     length 1.8612   
     axis -90 7.62852e-016 20   XYZ
    dof rx rz
    limits (-45.0 90.0)
           (-70.0 20.0)
  end
  begin
     id 5 
     name ltoes
     direction 1.53561e-011 -4.21864e-011 1   
     length 0.925608   
     axis -90 7.62852e-016 20   XYZ
    dof rx
    limits (-90.0 20.0)
  end
  begin
     id 6 
     name rhipjoint
     direction -0.609094 -0.738725 0.288599   
     length 2.48624  
     axis 0 0 0  XYZ 
  end
  begin
     id 7 
     name rfemur
     direction -0.34202 -0.939693 0   
     length 7.44259   
     axis 0 0 -20   XYZ
    dof rx ry rz
    limits (-160.0 20.0)
           (-70.0 70.0)
           (-70.0 60.0)
  end
  begin
     id 8 
     name rtibia
     direction -0.34202 -0.939693 0   
     length 7.7781   
     axis 0 0 -20   XYZ
    dof rx
    limits (-10.0 170.0)
 end
 begin
     id 9 
     name rfoot
     direction -0.107015 -0.294021 0.949789   
     length 2.14741  
     axis -90 -7.62852e-016 -20   XYZ
    dof rx rz
    limits (-45.0 90.0)
           (-20.0 70.0)
  end
  begin
     id 10 
     name rtoes
     direction -1.53497e-011 -4.21924e-011 1   
     length 1.0706   
     axis -90 -7.62852e-016 -20   XYZ
    dof rx
    limits (-90.0 20.0)
  end
  begin
     id 11 
     name lowerback
     direction -0.0142066 0.998112 -0.0597545   
     length 1.86627   
     axis 0 0 0   XYZ
    dof rx ry rz
    limits (-20.0 45.0)
           (-30.0 30.0)
           (-30.0 30.0)
  end
  begin
     id 12 
     name upperback
     direction 0.00547294 0.999744 0.0219437   
     length 1.86272   
     axis 0 0 0   XYZ
    dof rx ry rz
    limits (-20.0 45.0)
           (-30.0 30.0)
           (-30.0 30.0)
  end
  begin
     id 13 
     name thorax
     direction 0.0116162 0.998704 0.0495538   
     length 1.8703   
     axis 0 0 0   XYZ
    dof rx ry rz
    limits (-20.0 45.0)
           (-30.0 30.0)
           (-30.0 30.0)
  end
  begin
     id 14 
     name lowerneck
     direction -0.0106574 0.998739 0.0490586   
     length 1.8074   
     axis 0 0 0   XYZ
    dof rx ry rz
    limits (-20.0 45.0)
           (-30.0 30.0)
           (-30.0 30.0)
  end
  begin
     id 15 
     name upperneck
     direction 0.030527 0.976587 -0.212944   
     length 1.80681   
     axis 0 0 0   XYZ
    dof rx ry rz
    limits (-20.0 45.0)
           (-30.0 30.0)
           (-30.0 30.0)
  end
  begin
     id 16
     name head
     direction 0.00869225 0.997035 -0.0764531  
     length 1.8313  
     axis 0 0 0   XYZ
    dof rx ry rz
    limits (-20.0 45.0)
           (-30.0 30.0)
           (-30.0 30.0)
  end
  begin
     id 17 
     name lclavicle
     direction 0.915958 0.399447 0.0382386  
     length 3.78965  
     axis 0 0 0   XYZ
    dof ry rz
    limits (-20.0 10.0)
           (0.0 20.0)
  end
  begin
     id 18 
     name lhumerus
     direction 1 -4.48967e-011 3.19303e-027   
     length 4.78095   
     axis -180 -30 -90   XYZ
    dof rx ry rz
    limits (-60.0 90.0)
           (-90.0 90.0)
           (-90.0 90.0)
  end
  begin
     id 19
     name lradius
     direction 1 -4.48967e-011 -3.77974e-027   
     length 3.58615   
     axis -180 -30 -90   XYZ
    dof rx
    limits (-10.0 170.0)
  end
  begin
     id 20
     name lwrist
     direction 1 -4.48927e-011 1.2807e-027   
     length 1.79307   
     axis 1.91374e-015 90 90   XYZ
    dof ry
    limits (-180.0 0.0)
 end
  begin
     id 21 
     name lhand
     direction 1 -4.49036e-011 2.5614e-027   
     length 0.659812   
     axis -1.63439e-015 90 90   XYZ
    dof rx rz
    limits (-90.0 90.0)
           (-45.0 45.0)
  end
  begin
     id 22 
     name lfingers
     direction 1 -4.49052e-011 5.1228e-027   
     length 0.531957   
     axis -3.26879e-015 90 90   XYZ
    dof rx
    limits (0.0 90.0)
  end
  begin
     id 23
     name lthumb
     direction 0.707107 -6.35012e-011 0.707107   
     length 0.763787   
     axis -90 45 2.85299e-015   XYZ
    dof rx rz
    limits (-45.0 45.0)
           (-45.0 45.0)
  end
  begin
     id 24 
     name rclavicle
     direction -0.895351 0.435135 0.0948887   
     length 3.70497  
     axis 0 0 0   XYZ 
    dof ry rz
    limits (-10.0 20.0)
           (-20.0 0.0)
  end
  begin
     id 25 
     name rhumerus
     direction -1 -4.48971e-011 2.38946e-027  
     length 4.48913   
     axis -180 30 90   XYZ
    dof rx ry rz
    limits (-90.0 60.0)
           (-90.0 90.0)
           (-90.0 90.0)
  end
  begin
     id 26 
     name rradius
     direction -1 -4.4895e-011 4.38668e-027   
     length 3.7051   
     axis -180 30 90   XYZ
    dof rx
    limits (-10.0 170.0)
  end
  begin
     id 27 
     name rwrist
     direction -1 -4.49007e-011 1.2807e-027   
     length 1.85255   
     axis 1.91374e-015 -90 -90   XYZ
    dof ry
    limits (-180.0 0.0)
  end
  begin
     id 28
     name rhand
     direction -1 -4.48851e-011 2.5614e-027   
     length 0.449136   
     axis -1.63439e-015 -90 -90   XYZ
    dof rx rz
    limits (-90.0 90.0)
           (-45.0 45.0)
  end
  begin
     id 29
     name rfingers
     direction -1 -4.49128e-011 5.1228e-027   
     length 0.362105   
     axis -3.26879e-015 -90 -90   XYZ
    dof rx
    limits (0.0 90.0)
  end
  begin
     id 30
     name rthumb
     direction -0.707107 -6.34851e-011 0.707107   
     length 0.519912   
     axis -90 -45 -2.85299e-015   XYZ
    dof rx rz
    limits (-45.0 45.0)
           (-45.0 45.0)
  end
:hierarchy
  begin
    root lhipjoint rhipjoint lowerback
    lhipjoint lfemur
    lfemur ltibia
    ltibia lfoot
    lfoot ltoes
    rhipjoint rfemur
    rfemur rtibia
    rtibia rfoot
    rfoot rtoes
    lowerback upperback
    upperback thorax
    thorax lowerneck lclavicle rclavicle
    lowerneck upperneck
    upperneck head
    lclavicle lhumerus
    lhumerus lradius
    lradius lwrist
    lwrist lhand lthumb
    lhand lfingers
    rclavicle rhumerus
    rhumerus rradius
    rradius rwrist
    rwrist rhand rthumb
    rhand rfingers
  end

#!OML:ASF I:\Actors\actors\Patient Classification 2\Patient 1\Session 1\actor1.ASF
:FULLY-SPECIFIED
:DEGREES
23
root -0.57465 18.674 5.60048 3.28519 -3.5551 -0.966289
lowerback 0.221684 1.02618 -1.46871
upperback -3.67167 1.3336 -0.0490596
thorax -3.93405 0.711762 0.722852
lowerneck -9.2821 -2.33248 -2.10775
upperneck 24.3075 -3.66009 3.10421
head 9.24943 -1.58344 1.03112
rclavicle 3.47873e-016 -1.21259e-014
rhumerus -47.5937 -2.11998 -88.1345
rradius 39.655
rwrist 20.2764
rhand -6.04012 -30.7053
rfingers 7.12502
rthumb 19.7938 -59.7175
lclavicle 3.47873e-016 -1.21259e-014
lhumerus -42.7998 2.84691 89.7545
lradius 35.5664
lwrist -10.7006
lhand -5.59597 -23.507
lfingers 7.12502
lthumb 20.2207 5.46053
rfemur 0 0 0
rtibia 0
rfoot 0 0
rtoes 0
lfemur -4.72839 -5.11329 -13.7865
ltibia 19.9247
lfoot -25.2982 17.5271
ltoes -54.2005
24
root -0.575001 18.674 5.60052 3.30254 -3.55973 -0.968504
lowerback 0.212371 1.02321 -1.49335
upperback -3.67575 1.32962 -0.0355223
thorax -3.93388 0.710864 0.75085
lowerneck -9.26998 -2.32171 -2.12653
upperneck 24.3008 -3.64478 3.11868
head 9.24496 -1.57663 1.04106
rclavicle 2.6339e-014 6.75868e-015
rhumerus -47.5939 -2.11195 -88.1172
rradius 39.6535
rwrist 20.309
rhand -5.91466 -30.7114
rfingers 7.12502
rthumb 19.9144 -59.7111
lclavicle 2.6339e-014 6.75868e-015
lhumerus -42.8231 2.87924 89.7611
lradius 35.5965
lwrist -10.7069
lhand -5.60062 -23.5734
lfingers 7.12502
lthumb 20.2162 5.39456
rfemur 0 0 0
rtibia 0
rfoot 0 0
rtoes 0
lfemur -4.73967 -5.11991 -13.7801
ltibia 19.9221
lfoot -25.3147 17.5347
ltoes -54.2131
25
root -0.574902 18.6743 5.60125 3.31402 -3.56734 -0.942746
lowerback 0.193682 1.02966 -1.51184
upperback -3.67044 1.33761 -0.052209
thorax -3.91803 0.715025 0.744148
lowerneck -9.30797 -2.31308 -2.12074
upperneck 24.3349 -3.63369 3.11643
head 9.26361 -1.5704 1.04015
rclavicle -3.45388e-015 -4.57205e-015
rhumerus -47.5911 -2.13846 -88.1133
rradius 39.6538
rwrist 20.3203
rhand -5.91646 -30.7102
rfingers 7.12502
rthumb 19.9127 -59.71
lclavicle -3.45388e-015 -4.57205e-015
lhumerus -42.8044 2.86067 89.7508
lradius 35.5765
lwrist -10.6866
lhand -5.60563 -23.6625
lfingers 7.12502
lthumb 20.2114 5.30605
rfemur 0 0 0
rtibia 0
rfoot 0 0
rtoes 0
lfemur -4.74121 -5.15465 -13.8083
ltibia 19.9163
lfoot -25.3113 17.574
ltoes -54.2412
26
root -0.574682 18.6744 5.60191 3.31635 -3.56998 -0.917696
lowerback 0.172017 1.0391 -1.50952
upperback -3.66102 1.34972 -0.0824901
thorax -3.89545 0.720251 0.711779
lowerneck -9.36928 -2.30085 -2.11631
upperneck 24.4325 -3.62294 3.12948
head 9.30927 -1.56203 1.0446
rclavicle 1.28465e-014 -1.19271e-015
rhumerus -47.5928 -2.19551 -88.1181
rradius 39.6478
rwrist 20.3333
rhand -5.95272 -30.7031
rfingers 7.12502
rthumb 19.8778 -59.7065
lclavicle 1.28465e-014 -1.19271e-015
lhumerus -42.793 2.79563 89.7431
lradius 35.5664
lwrist -10.6558
lhand -5.6618 -23.6952
lfingers 7.12502
lthumb 20.1574 5.27897
rfemur 0 0 0
rtibia 0
rfoot 0 0
rtoes 0
lfemur -4.73783 -5.15931 -13.8355
ltibia 19.9056
lfoot -25.2936 17.596
ltoes -54.2857
27
root -0.575013 18.6741 5.60276 3.31162 -3.57475 -0.924964
lowerback 0.161114 1.04841 -1.50521
upperback -3.65996 1.36217 -0.0910716
thorax -3.88816 0.72611 0.70031
lowerneck -9.34732 -2.28673 -2.13338
upperneck 24.4568 -3.61487 3.18646
head 9.31479 -1.55377 1.06829
rclavicle 9.93923e-016 1.43125e-014
rhumerus -47.6138 -2.22418 -88.1218
rradius 39.6565
rwrist 20.3549
rhand -5.93533 -30.7187
rfingers 7.12502
rthumb 19.8945 -59.7204
lclavicle 9.93923e-016 1.43125e-014
lhumerus -42.8235 2.75668 89.7416
lradius 35.6012
lwrist -10.6131
lhand -5.6967 -23.6173
lfingers 7.12502
lthumb 20.1239 5.36045
rfemur 0 0 0
rtibia 0
rfoot 0 0
rtoes 0
lfemur -4.72965 -5.14778 -13.8292
ltibia 19.897
lfoot -25.2864 17.5918
ltoes -54.2794
28
root -0.575402 18.6735 5.60418 3.30876 -3.5714 -0.931398
lowerback 0.160461 1.04451 -1.51687
upperback -3.66448 1.35682 -0.0864124
thorax -3.89277 0.723964 0.71178
lowerneck -9.2848 -2.276 -2.14414
upperneck 24.4154 -3.6051 3.21893
head 9.28893 -1.54781 1.08294
rclavicle 5.44173e-015 -1.74931e-014
rhumerus -47.6287 -2.23412 -88.1192
rradius 39.6489
rwrist 20.3758
rhand -6.03488 -30.7184
rfingers 7.12502
rthumb 19.7988 -59.73
lclavicle 5.44173e-015 -1.74931e-014
lhumerus -42.8495 2.79252 89.716
lradius 35.6223
lwrist -10.5931
lhand -5.68312 -23.5388
lfingers 7.12502
lthumb 20.137 5.43761
rfemur 0 0 0
rtibia 0
rfoot 0 0
rtoes 0
lfemur -4.72336 -5.13346 -13.8238
ltibia 19.8975
lfoot -25.2892 17.5727
ltoes -54.2415
29
root -0.575516 18.6733 5.60528 3.31695 -3.54958 -0.931316
lowerback 0.159735 1.02614 -1.52848
upperback -3.67522 1.33216 -0.0793709
thorax -3.90338 0.712299 0.726307
lowerneck -9.24334 -2.2674 -2.13717
upperneck 24.4029 -3.58742 3.19031
head 9.27545 -1.54259 1.07425
rclavicle 3.42904e-015 -5.36719e-015
rhumerus -47.6336 -2.2459 -88.1057
rradius 39.6151
rwrist 20.4301
rhand -6.25786 -30.5952
rfingers 7.12502
rthumb 19.5845 -59.6288
lclavicle 3.42904e-015 -5.36719e-015
lhumerus -42.8806 2.84215 89.6888
lradius 35.6366
lwrist -10.5997
lhand -5.67072 -23.5115
lfingers 7.12502
lthumb 20.1489 5.46358
rfemur 0 0 0
rtibia 0
rfoot 0 0
rtoes 0
lfemur -4.73282 -5.11655 -13.8189
ltibia 19.9042
lfoot -25.2928 17.5331
ltoes -54.2309
30
root -0.575904 18.6738 5.60572 3.33116 -3.53466 -0.952271
lowerback 0.135693 1.0085 -1.5213
upperback -3.67376 1.30946 -0.0711871
thorax -3.88769 0.700802 0.732036
lowerneck -9.22828 -2.24865 -2.12704
upperneck 24.4002 -3.56044 3.17963
head 9.27039 -1.53042 1.07193
rclavicle -1.96051e-014 3.37934e-015
rhumerus -47.6384 -2.21825 -88.1204
rradius 39.6156
rwrist 20.4485
rhand -6.40039 -30.416
rfingers 7.12502
rthumb 19.4474 -59.4635
lclavicle -1.96051e-014 3.37934e-015
lhumerus -42.8936 2.88606 89.6566
lradius 35.6558
lwrist -10.6207
lhand -5.68707 -23.4734
lfingers 7.12502
lthumb 20.1332 5.50335
rfemur 0 0 0
rtibia 0
rfoot 0 0
rtoes 0
lfemur -4.74804 -5.11382 -13.7893
ltibia 19.9064
lfoot -25.2874 17.5054
ltoes -54.2455
31
root -0.576299 18.674 5.60592 3.33065 -3.54169 -0.967399
lowerback 0.111768 1.00315 -1.52066
upperback -3.65443 1.3031 -0.0646404
thorax -3.85404 0.697429 0.739344
lowerneck -9.25624 -2.23169 -2.12409
upperneck 24.4066 -3.53899 3.18801
head 9.27735 -1.51886 1.07636
rclavicle -1.04362e-015 -3.97569e-016
rhumerus -47.6517 -2.15568 -88.1511
rradius 39.6725
rwrist 20.3951
rhand -6.41841 -30.399
rfingers 7.12502
rthumb 19.4301 -59.4482
lclavicle -1.04362e-015 -3.97569e-016
lhumerus -42.8688 2.92989 89.6278
lradius 35.6579
lwrist -10.6444
lhand -5.70074 -23.405
lfingers 7.12502
lthumb 20.12 5.57313
rfemur 0 0 0
rtibia 0
rfoot 0 0
rtoes 0
lfemur -4.74676 -5.12295 -13.7738
ltibia 19.9013
lfoot -25.2684 17.5502
ltoes -54.2812
